# xmcd
#
# Track frame offsets:
#	150
#	21962
#	41341
#	57109
#	76549
#	94060
#	98813
#	115262
#	129746
#	146552
#	165836
#	182594
#
# Disc length: 2703 seconds
#
# Revision: 1
# Processed by: cddbd v1.5.2PL0 Copyright (c) Steve Scherf et al.
# Submitted via: audiograbber 1.83.01
#
DISCID=8b0a8d0c
DTITLE=Josh Abbott Band - Small Town Family Dream
DYEAR=2012
DGENRE=Country
TTITLE0=Idalou
TTITLE1=I'll Sing About Mine
TTITLE2=Touch
TTITLE3=She Will Be Free
TTITLE4=Hotty Toddy
TTITLE5=FFA
TTITLE6=Flatland Farmer
TTITLE7=My Texas (featuring Pat Green)
TTITLE8=Dallas Love
TTITLE9=Hell's Gates On Fire
TTITLE10=Rain Finally Coming Down
TTITLE11=Small Town Family Dream
EXTD=
EXTT0=
EXTT1=
EXTT2=
EXTT3=
EXTT4=
EXTT5=
EXTT6=
EXTT7=
EXTT8=
EXTT9=
EXTT10=
EXTT11=
PLAYORDER=
